<svg width="261" height="67" viewBox="0 0 261 67" fill="none" xmlns="http://www.w3.org/2000/svg">
<g clip-path="url(#clip0_29_196)">
<path d="M15.38 41.0211C15.38 41.0211 11.09 40.6656 8.5 40.6656C5.91 40.6656 4.92 41.0516 4.92 42.6973C4.92 44.0586 5.82 44.4446 9.4 45.0135C15.1 45.9278 17 47.3906 17 51.7284C17 56.8077 13.72 58.748 8.41 58.748C5.35 58.748 0.209999 58.108 0.209999 58.108L0.389999 53.8515C0.389999 53.8515 5.74 54.2274 7.94 54.2274C10.94 54.2274 12.08 53.6179 12.08 51.8604C12.08 50.4585 11.39 50.1436 7.94 49.5646C2.41 48.6503 0 47.3906 0 42.8294C0 37.8313 3.84 36.084 8.15 36.084C10.6016 36.1478 13.0467 36.3718 15.47 36.7545L15.38 41.0211Z" fill="#00375D"/>
<path d="M51.1003 48.7816C49.2503 48.9543 48.2603 49.6146 48.2603 51.4025C48.2603 53.1904 49.0403 54.2368 50.4603 54.2368H55.8303V48.7816H51.1003ZM62.1703 54.2368L62.4903 57.9142L49.6003 58.3003C45.5203 58.3003 43.3203 55.852 43.3203 51.5346C43.3203 46.8616 45.8603 45.2463 50.5003 44.8908H55.8303V43.0216C55.8303 41.3149 54.8303 40.5225 53.1803 40.5225C50.0003 40.5225 45.3103 40.7156 45.3103 40.7156L44.9803 36.6521C44.9803 36.6521 50.2403 36.1035 53.4203 36.1035C58.1503 36.1035 60.7303 37.607 60.7303 42.9809V54.2368H62.1703Z" fill="#00375D"/>
<path d="M113.389 47.2683C113.389 42.7579 112.239 40.6042 108.819 40.6042C105.219 40.6042 104.199 42.6359 104.199 47.2683C104.199 51.9007 105.049 54.1457 108.819 54.1457C112.589 54.1457 113.389 51.8296 113.389 47.2683ZM118.299 47.2683C118.299 54.1864 116.089 58.5749 108.819 58.5749C101.549 58.5749 99.2891 54.2778 99.2891 47.2683C99.2891 40.2588 101.659 36.0938 108.819 36.0938C115.979 36.0938 118.299 40.3909 118.299 47.2683Z" fill="#00375D"/>
<path d="M73.6169 41.996C74.13 41.5884 74.6909 41.2471 75.2869 40.9801C76.5968 40.3424 78.0807 40.1742 79.4969 40.5027L80.1269 36.5306C79.2368 36.2466 78.3099 36.0993 77.3769 36.0938C76.2304 36.0902 75.1007 36.3728 74.0869 36.9166C73.0235 37.4911 72.1087 38.3126 71.4169 39.3141V36.2665H66.2969V58.0874H71.4169V44.2309C71.9826 43.3332 72.7332 42.5707 73.6169 41.996Z" fill="#00375D"/>
<path d="M30.4019 36.1035H26.7319L20.1719 36.2965L20.4919 39.913H21.9019V51.0063C21.9019 51.1384 21.9019 66.2444 21.9019 66.3866H26.7319V58.5441H30.4419C37.7219 58.5441 39.9219 54.1555 39.9219 47.2374C39.9219 40.3194 37.4319 36.1035 30.4019 36.1035ZM30.4019 54.1149H26.7319V40.5937H30.4419C33.8719 40.5937 35.0119 42.7473 35.0119 47.2578C35.0119 51.7682 34.1719 54.1149 30.4019 54.1149Z" fill="#00375D"/>
<path d="M91.2584 41.996C91.7715 41.5884 92.3325 41.2472 92.9284 40.9801C94.2384 40.3425 95.7223 40.1742 97.1384 40.5027L97.7284 36.5306C96.8417 36.2467 95.9181 36.0995 94.9884 36.0938C93.8386 36.0886 92.7052 36.3712 91.6884 36.9167C90.6251 37.4912 89.7103 38.3126 89.0184 39.3141V36.2665H83.8984V58.0874H89.0184V44.2309C89.5957 43.3289 90.3602 42.5661 91.2584 41.996Z" fill="#00375D"/>
<path d="M149.924 36.5615L145.754 54.197H144.464L140.384 36.5615H139.744H135.264H134.754L130.584 54.197H129.294L125.204 36.5615H120.094L125.554 58.3519H134.234L137.494 45.4504L140.724 58.3519H149.404L154.914 36.5615H149.924Z" fill="#00375D"/>
<path d="M131.871 15.7459C131.92 14.8858 131.8 14.0244 131.519 13.2117C131.237 12.399 130.799 11.6513 130.231 11.0119C129.02 9.92173 127.437 9.35652 125.821 9.43735H125.251C123.992 9.44612 122.744 9.67286 121.561 10.1078H121.471C120.076 10.5246 118.734 11.1041 117.471 11.8348C116.498 10.2162 114.814 9.41026 112.421 9.41703C110.125 9.46366 107.875 10.0736 105.861 11.1948V9.9656H100.961V31.756H105.861V14.3135C106.559 14.019 107.273 13.768 108.001 13.5618C108.934 13.2881 109.9 13.1446 110.871 13.1351C111.564 13.1053 112.254 13.2593 112.871 13.5821C113.368 13.9259 113.724 14.4427 113.871 15.0348C114.064 15.7464 114.165 16.4807 114.171 17.2189V31.7357H119.071V14.3135C119.754 14.0086 120.46 13.7572 121.181 13.5618C122.087 13.308 123.021 13.1715 123.961 13.1554C124.529 13.1496 125.088 13.2969 125.581 13.5821C126.08 13.9239 126.436 14.4415 126.581 15.0348C126.8 15.9624 126.898 16.9155 126.871 17.8691V31.756H131.781V15.7459H131.871Z" fill="#4D9AB9"/>
<path d="M149.917 20.8047C149.917 16.2231 148.757 14.039 145.267 14.039C141.617 14.039 140.587 16.1317 140.587 20.8047C140.587 25.4777 141.447 27.7939 145.267 27.7939C149.087 27.7939 149.917 25.437 149.917 20.8047ZM154.917 20.8047C154.917 27.8345 152.687 32.2942 145.287 32.2942C137.887 32.2942 135.617 27.9259 135.617 20.8047C135.617 13.6834 138.027 9.49805 145.287 9.49805C152.547 9.49805 154.917 13.8663 154.917 20.8047Z" fill="#4D9AB9"/>
<path d="M61.3609 9.99609H56.4609V31.7865H61.3609V9.99609Z" fill="#4D9AB9"/>
<path d="M61.3631 0H56.4531V4.98792H61.3631V0Z" fill="#4D9AB9"/>
<path d="M97.4881 15.7967C97.5364 14.9382 97.4162 14.0785 97.1347 13.2676C96.8532 12.4567 96.4158 11.7107 95.8481 11.0729C94.6372 9.98267 93.0542 9.41746 91.4381 9.49829H90.8681C89.6105 9.50845 88.3634 9.73162 87.1781 10.1586H87.0881C85.6936 10.5754 84.3513 11.1549 83.0881 11.8856C82.1215 10.267 80.4381 9.46104 78.0381 9.46782C75.7417 9.50958 73.4899 10.1198 71.4781 11.2456V10.0164H66.5781V31.8068H71.4781V14.3745C72.1756 14.0766 72.8902 13.8222 73.6181 13.6126C74.5643 13.333 75.5429 13.1827 76.5281 13.1656C77.2217 13.1358 77.9109 13.2898 78.5281 13.6126C79.025 13.9564 79.3807 14.4732 79.5281 15.0653C79.7208 15.7736 79.8217 16.5044 79.8281 17.2392V31.7865H84.7281V14.3643C85.415 14.0683 86.1197 13.8172 86.8381 13.6126C87.7803 13.3463 88.7506 13.1963 89.7281 13.1656C90.2967 13.1629 90.8557 13.3136 91.3481 13.6024C91.847 13.9442 92.2033 14.4618 92.3481 15.0551C92.5684 15.9826 92.666 16.9357 92.6381 17.8894V31.8068H97.5481V15.7967H97.4881Z" fill="#4D9AB9"/>
<path d="M225.587 34.5802L239.127 20.8253C235.127 18.6513 230.997 16.6094 226.797 14.7301C221.797 12.5358 216.707 10.565 211.227 9.92502C208.723 9.6075 206.185 9.69321 203.707 10.179C197.732 11.3794 192.448 14.8877 188.968 19.9656C185.488 25.0435 184.082 31.2949 185.047 37.4043C185.494 40.5406 186.572 43.5499 188.213 46.2449C189.854 48.9398 192.024 51.2627 194.587 53.069C200.817 57.5998 207.717 58.5242 215.057 56.7058C221.133 55.0642 227.017 52.7618 232.607 49.8385C234.397 48.9547 236.177 48.0303 237.937 47.0855L225.587 34.5802ZM208.437 44.8811C206.258 44.881 204.128 44.2233 202.317 42.9913C200.506 41.7593 199.096 40.0087 198.266 37.9614C197.436 35.9142 197.224 33.6627 197.656 31.4926C198.087 29.3225 199.144 27.3316 200.691 25.7725C202.239 24.2134 204.207 23.1564 206.347 22.7356C208.487 22.3148 210.701 22.5492 212.709 23.409C214.718 24.2688 216.429 25.7153 217.627 27.565C218.825 29.4146 219.455 31.584 219.437 33.7979C219.432 35.2596 219.143 36.7059 218.587 38.0541C218.032 39.4023 217.22 40.6261 216.198 41.6554C215.177 42.6847 213.965 43.4993 212.634 44.0528C211.302 44.6063 209.876 44.8878 208.437 44.8811Z" fill="#00375D"/>
<path d="M230.93 34.4991L241.45 45.1861C247.53 41.7829 253.45 38.075 259.27 34.2452C259.51 34.0826 259.78 33.9607 260.03 33.8185V33.5137C259.32 33.0769 258.61 32.6502 257.91 32.1931C252.91 28.8712 247.75 25.7017 242.52 22.7354L230.93 34.4991Z" fill="#4D9AB9"/>
<path d="M171.531 0.314453H170.531V66.3866H171.531V0.314453Z" fill="#00375D"/>
</g>
<defs>
<clipPath id="clip0_29_196">
<rect width="260.03" height="66.3871" fill="white"/>
</clipPath>
</defs>
</svg>
